# xmcd
#
# Track frame offsets: 
#        150
#        13935
#        30988
#        49075
#        66785
#
# Disc length: 1180 seconds
#
# Revision: 5
# Processed by: cddbd v1.5.2PL0 Copyright (c) Steve Scherf et al.
# Submitted via: ExactAudioCopy v1.0b3
#
DISCID=38049a05
DTITLE=UNLIMITS - 茜-アカネ-
DYEAR=2009
DGENRE=Hard Rock
TTITLE0=蜃気楼
TTITLE1=茜唄
TTITLE2=さよならバタフライ
TTITLE3=Sunday
TTITLE4=メッセージ
EXTD=YEAR: 2009
EXTT0=
EXTT1=
EXTT2=
EXTT3=
EXTT4=
PLAYORDER=
